<?xml version="1.0" standalone="no"?>
<!DOCTYPE svg PUBLIC "-//W3C//DTD SVG 20010904//EN"
 "http://www.w3.org/TR/2001/REC-SVG-20010904/DTD/svg10.dtd">
<svg version="1.0" xmlns="http://www.w3.org/2000/svg"
 width="300.000000pt" height="228.000000pt" viewBox="0 0 300.000000 228.000000"
 preserveAspectRatio="xMidYMid meet">
<metadata>
Created by potrace 1.10, written by Peter Selinger 2001-2011
</metadata>
<g transform="translate(0.000000,228.000000) scale(0.100000,-0.100000)"
fill="#000000" stroke="none">
<path d="M284 2140 c0 -63 1 -89 3 -57 2 31 2 83 0 115 -2 31 -3 5 -3 -58z"/>
<path d="M550 2122 c-3 -68 -2 -126 2 -128 12 -8 13 9 8 131 l-5 120 -5 -123z"/>
<path d="M820 2120 c-3 -69 -5 -125 -5 -125 0 0 59 3 130 6 l130 5 -122 2
-122 2 -3 118 -3 117 -5 -125z"/>
<path d="M1094 2135 c0 -60 1 -84 3 -52 2 32 2 81 0 110 -2 29 -3 3 -3 -58z"/>
<path d="M1363 2175 c0 -38 2 -53 4 -32 2 20 2 52 0 70 -2 17 -4 1 -4 -38z"/>
<path d="M1627 2233 c-11 -11 -8 -193 3 -193 6 0 10 40 10 100 0 100 -1 106
-13 93z"/>
<path d="M2434 2135 c0 -60 1 -84 3 -52 2 32 2 81 0 110 -2 29 -3 3 -3 -58z"/>
<path d="M2704 2135 c0 -60 1 -84 3 -52 2 32 2 81 0 110 -2 29 -3 3 -3 -58z"/>
<path d="M2974 2135 c0 -60 1 -84 3 -52 2 32 2 81 0 110 -2 29 -3 3 -3 -58z"/>
<path d="M1893 2170 c0 -36 2 -50 4 -32 2 17 2 47 0 65 -2 17 -4 3 -4 -33z"/>
<path d="M2164 2120 c0 -52 1 -74 3 -47 2 26 2 68 0 95 -2 26 -3 4 -3 -48z"/>
<path d="M1256 2051 c-55 -36 -71 -102 -41 -161 22 -42 53 -60 106 -60 113 0
163 125 82 206 -28 28 -41 34 -76 34 -25 0 -54 -8 -71 -19z m129 -37 c54 -59
18 -154 -59 -154 -48 0 -65 8 -81 41 -23 43 -18 77 14 110 39 39 92 40 126 3z"/>
<path d="M1775 2010 l-120 -5 125 -5 c130 -5 140 -5 124 8 -5 4 -63 5 -129 2z"/>
<path d="M92 2003 c32 -2 84 -2 115 0 32 2 6 3 -57 3 -63 0 -89 -1 -58 -3z"/>
<path d="M362 2003 c32 -2 84 -2 115 0 32 2 6 3 -57 3 -63 0 -89 -1 -58 -3z"/>
<path d="M632 2003 c32 -2 84 -2 116 0 31 2 5 3 -58 3 -63 0 -89 -1 -58 -3z"/>
<path d="M1508 2003 c18 -2 45 -2 60 0 15 2 0 4 -33 4 -33 0 -45 -2 -27 -4z"/>
<path d="M1973 2003 c31 -2 83 -2 115 0 31 2 5 3 -58 3 -63 0 -89 -1 -57 -3z"/>
<path d="M2243 2003 c31 -2 83 -2 115 0 31 2 5 3 -58 3 -63 0 -89 -1 -57 -3z"/>
<path d="M2513 2003 c31 -2 83 -2 115 0 31 2 5 3 -58 3 -63 0 -89 -1 -57 -3z"/>
<path d="M2783 2003 c31 -2 83 -2 115 0 31 2 5 3 -58 3 -63 0 -89 -1 -57 -3z"/>
<path d="M284 1870 c0 -63 1 -89 3 -57 2 31 2 83 0 115 -2 31 -3 5 -3 -58z"/>
<path d="M554 1870 c0 -63 1 -89 3 -57 2 31 2 83 0 115 -2 31 -3 5 -3 -58z"/>
<path d="M824 1870 c0 -63 1 -89 3 -57 2 31 2 83 0 115 -2 31 -3 5 -3 -58z"/>
<path d="M2434 1870 c0 -63 1 -89 3 -57 2 31 2 83 0 115 -2 31 -3 5 -3 -58z"/>
<path d="M2704 1870 c0 -63 1 -89 3 -57 2 31 2 83 0 115 -2 31 -3 5 -3 -58z"/>
<path d="M2974 1870 c0 -63 1 -89 3 -57 2 31 2 83 0 115 -2 31 -3 5 -3 -58z"/>
<path d="M1590 1946 c0 -15 7 -26 19 -29 25 -6 31 0 31 30 0 18 -5 23 -25 23
-20 0 -25 -5 -25 -24z"/>
<path d="M1768 1944 c-7 -9 -28 -30 -47 -48 -58 -54 -119 -143 -140 -209 -25
-73 -28 -130 -17 -277 13 -163 -15 -233 -113 -282 -134 -68 -271 -1 -271 132
0 26 6 54 13 64 12 16 14 16 41 -5 69 -54 171 -53 226 3 49 48 66 150 32 181
-38 34 -112 7 -112 -41 0 -24 28 -62 46 -62 17 0 18 12 3 27 -15 15 -7 58 11
59 44 1 55 -61 18 -97 -35 -32 -102 -20 -201 36 -108 61 -149 72 -189 48 -48
-28 -71 -66 -76 -127 -9 -107 60 -198 204 -270 123 -62 282 -74 407 -32 105
36 164 72 235 145 73 74 115 151 143 259 32 127 20 240 -40 368 -55 118 -134
177 -173 128z m79 -26 c37 -26 58 -83 72 -194 14 -117 -8 -185 -72 -225 -57
-35 -116 -8 -160 76 -30 56 -29 183 0 240 31 57 53 83 60 67 17 -41 78 -57
103 -27 18 22 7 28 -24 14 -23 -11 -30 -10 -48 8 l-20 21 21 21 c26 26 27 26
68 -1z m-175 -370 c42 -77 121 -108 186 -74 40 21 60 47 81 105 21 59 31 57
31 -8 -1 -127 -63 -277 -154 -366 -107 -105 -235 -157 -378 -154 -73 2 -138
18 -73 19 33 0 129 42 159 68 10 9 30 40 44 67 27 53 30 92 23 313 -2 67 2
107 15 145 l17 52 13 -63 c7 -34 23 -81 36 -104z m-429 -146 c61 -35 91 -46
140 -51 l62 -7 -32 -17 c-44 -24 -89 -21 -152 8 l-54 26 -23 -22 c-46 -43 -41
-126 10 -202 19 -28 21 -35 8 -30 -56 21 -135 91 -163 145 -37 71 -16 168 41
192 43 18 72 10 163 -42z"/>
<path d="M1769 1715 c-55 -30 -62 -116 -12 -155 57 -45 123 -5 123 74 0 37 -5
48 -31 70 -35 30 -44 31 -80 11z m79 -57 c10 -22 10 -32 1 -50 -23 -44 -48
-49 -79 -16 -22 24 -21 58 2 86 18 22 61 10 76 -20z"/>
<path d="M2164 1860 c0 -52 1 -74 3 -47 2 26 2 68 0 95 -2 26 -3 4 -3 -48z"/>
<path d="M1062 1884 c-36 -25 -28 -70 16 -93 19 -10 26 -8 48 14 24 24 26 55
5 76 -16 16 -48 18 -69 3z m56 -38 c4 -21 -14 -37 -35 -29 -14 5 -18 35 -6 47
12 12 38 1 41 -18z"/>
<path d="M1470 1795 c-11 -13 -11 -19 3 -32 21 -21 49 -9 45 19 -4 28 -30 35
-48 13z"/>
<path d="M160 1740 l-125 -5 128 -5 c71 -3 131 -2 133 2 8 12 -9 13 -136 8z"/>
<path d="M812 1740 c3 -9 35 -12 128 -11 68 1 126 4 129 7 2 2 -48 4 -112 4
-63 0 -123 3 -133 7 -11 4 -15 2 -12 -7z"/>
<path d="M2090 1740 l-75 -6 73 -2 c39 -1 75 -2 79 -3 4 0 9 4 11 10 2 6 0 10
-5 9 -4 -1 -42 -4 -83 -8z"/>
<path d="M2310 1740 l-125 -5 128 -5 c71 -3 131 -2 133 2 8 12 -9 13 -136 8z"/>
<path d="M2694 1738 c-8 -12 9 -13 136 -8 l125 5 -128 5 c-71 3 -131 2 -133
-2z"/>
<path d="M362 1733 c32 -2 84 -2 115 0 32 2 6 3 -57 3 -63 0 -89 -1 -58 -3z"/>
<path d="M632 1733 c32 -2 84 -2 116 0 31 2 5 3 -58 3 -63 0 -89 -1 -58 -3z"/>
<path d="M1163 1733 c26 -2 68 -2 95 0 26 2 4 3 -48 3 -52 0 -74 -1 -47 -3z"/>
<path d="M2513 1733 c31 -2 83 -2 115 0 31 2 5 3 -58 3 -63 0 -89 -1 -57 -3z"/>
<path d="M284 1600 c0 -63 1 -89 3 -57 2 31 2 83 0 115 -2 31 -3 5 -3 -58z"/>
<path d="M554 1600 c0 -63 1 -89 3 -57 2 31 2 83 0 115 -2 31 -3 5 -3 -58z"/>
<path d="M824 1600 c0 -63 1 -89 3 -57 2 31 2 83 0 115 -2 31 -3 5 -3 -58z"/>
<path d="M1306 1701 c-4 -5 -3 -17 0 -26 10 -24 48 -15 52 13 3 18 -1 22 -22
22 -14 0 -27 -4 -30 -9z"/>
<path d="M2434 1600 c0 -63 1 -89 3 -57 2 31 2 83 0 115 -2 31 -3 5 -3 -58z"/>
<path d="M2704 1600 c0 -63 1 -89 3 -57 2 31 2 83 0 115 -2 31 -3 5 -3 -58z"/>
<path d="M2974 1600 c0 -63 1 -89 3 -57 2 31 2 83 0 115 -2 31 -3 5 -3 -58z"/>
<path d="M14 1605 c0 -55 1 -76 3 -47 2 29 2 74 0 100 -2 26 -3 2 -3 -53z"/>
<path d="M2164 1600 c0 -58 1 -81 3 -52 2 28 2 76 0 105 -2 28 -3 5 -3 -53z"/>
<path d="M1170 1678 c-64 -23 -80 -100 -31 -149 36 -36 73 -37 106 -4 32 31
34 91 5 127 -23 31 -47 38 -80 26z m51 -38 c30 -17 26 -75 -7 -97 -31 -20 -54
-10 -68 30 -7 19 -5 32 8 51 18 28 36 32 67 16z"/>
<path d="M912 1641 c-23 -14 -10 -46 18 -46 16 0 26 6 28 19 3 16 -12 36 -28
36 -3 0 -11 -4 -18 -9z"/>
<path d="M1363 1585 c0 -33 2 -45 4 -27 2 18 2 45 0 60 -2 15 -4 0 -4 -33z"/>
<path d="M695 1470 l-120 -5 125 -5 c69 -3 166 -2 215 1 l90 5 -82 2 c-45 1
-87 3 -95 5 -7 1 -67 0 -133 -3z"/>
<path d="M2095 1470 l-70 -6 78 -2 c46 -1 77 2 77 8 0 6 -3 9 -7 8 -5 -1 -39
-4 -78 -8z"/>
<path d="M2310 1470 l-125 -6 123 -2 c67 -1 125 -2 129 -3 4 0 9 4 11 10 2 6
0 10 -5 9 -4 -1 -64 -5 -133 -8z"/>
<path d="M92 1463 c32 -2 84 -2 115 0 32 2 6 3 -57 3 -63 0 -89 -1 -58 -3z"/>
<path d="M362 1463 c32 -2 84 -2 115 0 32 2 6 3 -57 3 -63 0 -89 -1 -58 -3z"/>
<path d="M2513 1463 c31 -2 83 -2 115 0 31 2 5 3 -58 3 -63 0 -89 -1 -57 -3z"/>
<path d="M2783 1463 c31 -2 83 -2 115 0 31 2 5 3 -58 3 -63 0 -89 -1 -57 -3z"/>
<path d="M284 1330 c0 -63 1 -89 3 -57 2 31 2 83 0 115 -2 31 -3 5 -3 -58z"/>
<path d="M554 1330 c0 -63 1 -89 3 -57 2 31 2 83 0 115 -2 31 -3 5 -3 -58z"/>
<path d="M824 1330 c0 -63 1 -89 3 -57 2 31 2 83 0 115 -2 31 -3 5 -3 -58z"/>
<path d="M2434 1330 c0 -63 1 -89 3 -57 2 31 2 83 0 115 -2 31 -3 5 -3 -58z"/>
<path d="M2704 1330 c0 -63 1 -89 3 -57 2 31 2 83 0 115 -2 31 -3 5 -3 -58z"/>
<path d="M2974 1330 c0 -63 1 -89 3 -57 2 31 2 83 0 115 -2 31 -3 5 -3 -58z"/>
<path d="M2164 1330 c0 -58 1 -81 3 -52 2 28 2 76 0 105 -2 28 -3 5 -3 -53z"/>
<path d="M370 1199 c-36 -3 47 -6 184 -7 137 -1 247 0 245 3 -8 7 -357 11
-429 4z"/>
<path d="M2150 1198 c0 -5 190 -8 422 -8 232 0 419 3 415 6 -8 9 -837 10 -837
2z"/>
<path d="M92 1193 c32 -2 84 -2 115 0 32 2 6 3 -57 3 -63 0 -89 -1 -58 -3z"/>
<path d="M883 1193 c20 -2 54 -2 75 0 20 2 3 4 -38 4 -41 0 -58 -2 -37 -4z"/>
<path d="M1983 1193 c32 -2 81 -2 110 0 29 2 3 3 -58 3 -60 0 -84 -1 -52 -3z"/>
<path d="M284 1065 c0 -60 1 -84 3 -52 2 32 2 81 0 110 -2 29 -3 3 -3 -58z"/>
<path d="M554 1065 c0 -60 1 -84 3 -52 2 32 2 81 0 110 -2 29 -3 3 -3 -58z"/>
<path d="M824 1060 c0 -63 1 -89 3 -57 2 31 2 83 0 115 -2 31 -3 5 -3 -58z"/>
<path d="M2434 1070 c0 -58 1 -81 3 -52 2 28 2 76 0 105 -2 28 -3 5 -3 -53z"/>
<path d="M2704 1065 c0 -60 1 -84 3 -52 2 32 2 81 0 110 -2 29 -3 3 -3 -58z"/>
<path d="M2974 1065 c0 -60 1 -84 3 -52 2 32 2 81 0 110 -2 29 -3 3 -3 -58z"/>
<path d="M1894 1065 c0 -55 1 -76 3 -47 2 29 2 74 0 100 -2 26 -3 2 -3 -53z"/>
<path d="M2164 1065 c0 -55 1 -76 3 -47 2 29 2 74 0 100 -2 26 -3 2 -3 -53z"/>
<path d="M1093 1025 c0 -38 2 -53 4 -32 2 20 2 52 0 70 -2 17 -4 1 -4 -38z"/>
<path d="M330 928 c0 -5 44 -7 98 -6 100 1 88 5 -31 10 -37 2 -67 0 -67 -4z"/>
<path d="M1140 928 c0 -5 39 -8 87 -8 47 0 84 3 81 6 -9 8 -168 10 -168 2z"/>
<path d="M1416 928 c3 -5 44 -8 91 -8 48 0 84 2 81 5 -8 9 -177 11 -172 3z"/>
<path d="M1980 929 c-43 -6 -43 -6 18 -7 61 -2 79 2 45 10 -10 2 -38 1 -63 -3z"/>
<path d="M2530 928 c0 -5 32 -8 72 -8 39 0 69 2 66 5 -8 9 -138 11 -138 3z"/>
<path d="M2758 928 c-13 -3 24 -6 81 -7 57 -1 102 1 100 3 -7 8 -157 11 -181
4z"/>
<path d="M112 923 c27 -2 69 -2 96 0 26 2 4 3 -48 3 -52 0 -74 -1 -48 -3z"/>
<path d="M284 800 c0 -63 1 -89 3 -57 2 31 2 83 0 115 -2 31 -3 5 -3 -58z"/>
<path d="M2434 795 c0 -60 1 -84 3 -52 2 32 2 81 0 110 -2 29 -3 3 -3 -58z"/>
<path d="M2704 795 c0 -60 1 -84 3 -52 2 32 2 81 0 110 -2 29 -3 3 -3 -58z"/>
<path d="M2974 795 c0 -60 1 -84 3 -52 2 32 2 81 0 110 -2 29 -3 3 -3 -58z"/>
<path d="M1620 795 c0 -58 4 -95 10 -95 7 0 10 35 8 95 -2 52 -6 95 -10 95 -5
0 -8 -43 -8 -95z"/>
<path d="M527 842 c-23 -25 -22 -85 1 -105 22 -20 65 -22 81 -4 15 19 4 27
-29 20 -34 -6 -46 19 -29 63 l11 29 15 -22 c18 -27 43 -30 43 -5 0 42 -63 58
-93 24z"/>
<path d="M660 790 c0 -56 3 -70 15 -70 9 0 15 9 15 25 0 31 27 34 32 3 2 -13
11 -24 22 -26 15 -3 17 0 11 14 -5 11 -8 37 -7 58 2 49 -11 66 -54 66 l-34 0
0 -70z m68 21 c-2 -9 -11 -17 -21 -19 -12 -3 -17 3 -17 21 0 20 4 24 20 20 12
-3 20 -12 18 -22z"/>
<path d="M817 853 c-3 -5 -5 -37 -6 -71 l0 -63 47 3 c54 3 63 21 15 26 -40 4
-46 32 -8 32 14 0 25 5 25 10 0 6 -11 10 -25 10 -16 0 -25 6 -25 15 0 10 10
15 31 15 43 0 32 24 -13 28 -20 2 -38 -1 -41 -5z"/>
<path d="M985 848 c-2 -7 -13 -38 -25 -68 -24 -66 -23 -60 -5 -60 9 0 18 7 21
15 4 8 17 15 30 15 15 0 24 -6 24 -15 0 -8 8 -15 19 -15 17 0 17 3 -4 68 -21
64 -48 93 -60 60z"/>
<path d="M1080 845 c0 -8 9 -15 20 -15 18 0 20 -7 20 -55 0 -44 3 -55 16 -55
14 0 16 9 12 55 -4 48 -2 55 14 55 10 0 18 7 18 15 0 11 -12 15 -50 15 -38 0
-50 -4 -50 -15z"/>
<path d="M1239 858 c0 -2 -2 -33 -3 -70 -2 -52 0 -68 11 -68 10 0 13 18 13 70
0 40 -4 70 -10 70 -5 0 -10 -1 -11 -2z"/>
<path d="M1315 843 c3 -10 11 -42 17 -70 9 -46 14 -53 34 -53 19 0 25 8 35 43
6 23 15 52 20 64 5 13 4 25 -1 28 -18 11 -28 -4 -34 -50 -4 -25 -11 -45 -15
-45 -4 0 -13 23 -20 50 -8 32 -18 50 -28 50 -10 0 -13 -6 -8 -17z"/>
<path d="M1480 789 l0 -70 42 3 c53 4 65 28 14 28 -27 0 -36 4 -36 16 0 12 7
15 25 12 17 -4 25 -1 25 8 0 8 -11 14 -25 14 -16 0 -25 6 -25 15 0 10 10 15
30 15 20 0 30 5 30 15 0 11 -11 15 -40 15 l-40 0 0 -71z"/>
<path d="M1670 855 c0 -3 9 -22 20 -42 11 -21 20 -50 20 -65 0 -21 5 -28 20
-28 16 0 20 7 20 33 1 17 7 43 15 57 18 32 19 50 1 50 -7 0 -18 -15 -23 -32
l-11 -33 -13 33 c-8 19 -21 32 -31 32 -10 0 -18 -2 -18 -5z"/>
<path d="M1837 842 c-23 -25 -22 -85 1 -105 23 -21 65 -22 81 -3 18 21 19 67
4 99 -16 32 -61 37 -86 9z m51 -14 c17 -17 15 -63 -3 -78 -22 -18 -35 -3 -35
39 0 50 13 64 38 39z"/>
<path d="M1980 818 c0 -59 19 -92 53 -96 44 -5 57 13 57 79 0 46 -3 59 -15 59
-11 0 -15 -13 -15 -54 0 -30 -5 -58 -11 -62 -19 -11 -34 16 -34 64 0 36 -4 47
-17 50 -15 3 -18 -4 -18 -40z"/>
<path d="M2130 845 c0 -9 9 -15 21 -15 20 0 21 -4 17 -55 -4 -50 -3 -55 15
-55 18 0 19 5 13 55 -6 51 -5 55 14 55 11 0 20 7 20 15 0 11 -12 15 -50 15
-38 0 -50 -4 -50 -15z"/>
<path d="M2282 790 c0 -54 3 -70 14 -70 9 0 14 11 14 31 0 26 3 30 23 27 16
-2 22 -10 22 -28 0 -14 6 -25 14 -25 10 0 13 17 13 65 0 48 -3 65 -13 65 -9 0
-13 -9 -11 -27 3 -24 0 -28 -22 -28 -22 0 -26 4 -26 30 0 19 -5 30 -14 30 -11
0 -14 -16 -14 -70z"/>
<path d="M2567 663 c18 -2 50 -2 70 0 21 2 7 4 -32 4 -38 0 -55 -2 -38 -4z"/>
<path d="M284 525 c0 -60 1 -84 3 -52 2 32 2 81 0 110 -2 29 -3 3 -3 -58z"/>
<path d="M554 525 c0 -60 1 -84 3 -52 2 32 2 81 0 110 -2 29 -3 3 -3 -58z"/>
<path d="M2434 525 c0 -60 1 -84 3 -52 2 32 2 81 0 110 -2 29 -3 3 -3 -58z"/>
<path d="M2704 525 c0 -60 1 -84 3 -52 2 32 2 81 0 110 -2 29 -3 3 -3 -58z"/>
<path d="M2974 525 c0 -60 1 -84 3 -52 2 32 2 81 0 110 -2 29 -3 3 -3 -58z"/>
<path d="M827 582 c-36 -39 -10 -122 38 -122 34 0 55 10 55 27 0 11 -7 13 -29
8 -37 -8 -56 20 -41 59 11 31 25 33 40 6 13 -25 30 -26 30 -2 0 42 -63 58 -93
24z"/>
<path d="M987 582 c-20 -22 -22 -80 -3 -104 7 -10 26 -18 41 -18 35 0 54 25
55 71 0 60 -57 91 -93 51z m51 -14 c17 -17 15 -63 -3 -78 -21 -17 -36 -2 -37
37 -1 48 16 65 40 41z"/>
<path d="M1139 596 c-2 -2 -2 -34 -1 -71 l4 -66 36 3 c46 4 56 28 12 28 l-31
0 2 52 c3 45 -7 69 -22 54z"/>
<path d="M1270 529 l0 -70 37 3 c42 3 59 28 19 28 -25 0 -26 3 -26 55 0 42 -3
55 -15 55 -12 0 -15 -15 -15 -71z"/>
<path d="M1410 529 l0 -70 42 3 c53 4 65 28 14 28 -25 0 -36 4 -36 15 0 9 9
15 25 15 14 0 25 5 25 10 0 6 -11 10 -25 10 -16 0 -25 6 -25 15 0 10 10 15 30
15 20 0 30 5 30 15 0 11 -11 15 -40 15 l-40 0 0 -71z"/>
<path d="M1547 582 c-23 -25 -22 -85 1 -105 22 -20 63 -22 80 -5 21 21 13 29
-22 23 -28 -6 -34 -4 -39 15 -6 25 8 70 22 70 5 0 13 -9 16 -20 8 -25 35 -26
35 -2 0 42 -63 58 -93 24z"/>
<path d="M1677 594 c-13 -13 -7 -24 13 -24 18 0 20 -7 20 -55 0 -42 3 -55 15
-55 12 0 15 13 15 55 0 49 2 55 21 55 12 0 19 5 17 13 -5 13 -89 22 -101 11z"/>
<path d="M1830 531 c0 -57 3 -71 15 -71 13 0 15 12 13 67 -2 42 -8 68 -15 71
-10 3 -13 -15 -13 -67z"/>
<path d="M1902 589 c3 -8 13 -40 22 -71 13 -44 21 -58 35 -58 15 0 24 16 41
66 11 37 19 69 16 71 -14 15 -34 -11 -40 -51 -4 -25 -11 -46 -15 -46 -4 0 -12
21 -17 47 -6 35 -14 49 -28 51 -13 3 -17 0 -14 -9z"/>
<path d="M2070 529 l0 -70 42 3 c51 4 63 25 16 30 -36 3 -41 21 -8 26 27 4 26
20 -2 24 -30 4 -25 22 7 26 43 6 31 32 -15 32 l-40 0 0 -71z"/>
<path d="M278 403 c-2 -5 -1 -64 2 -133 l5 -125 5 128 c3 71 2 131 -2 133 -4
2 -8 1 -10 -3z"/>
<path d="M112 393 c27 -2 69 -2 96 0 26 2 4 3 -48 3 -52 0 -74 -1 -48 -3z"/>
<path d="M368 393 c28 -2 76 -2 105 0 28 2 5 3 -53 3 -58 0 -81 -1 -52 -3z"/>
<path d="M638 393 c28 -2 76 -2 105 0 28 2 5 3 -53 3 -58 0 -81 -1 -52 -3z"/>
<path d="M903 393 c20 -2 54 -2 75 0 20 2 3 4 -38 4 -41 0 -58 -2 -37 -4z"/>
<path d="M1168 393 c23 -2 61 -2 85 0 23 2 4 4 -43 4 -47 0 -66 -2 -42 -4z"/>
<path d="M1443 393 c26 -2 67 -2 90 0 23 2 2 3 -48 3 -49 0 -68 -1 -42 -3z"/>
<path d="M1698 393 c23 -2 61 -2 85 0 23 2 4 4 -43 4 -47 0 -66 -2 -42 -4z"/>
<path d="M1968 393 c23 -2 61 -2 85 0 23 2 4 4 -43 4 -47 0 -66 -2 -42 -4z"/>
<path d="M2248 393 c28 -2 76 -2 105 0 28 2 5 3 -53 3 -58 0 -81 -1 -52 -3z"/>
<path d="M2518 393 c28 -2 76 -2 105 0 28 2 5 3 -53 3 -58 0 -81 -1 -52 -3z"/>
<path d="M2788 393 c28 -2 76 -2 105 0 28 2 5 3 -53 3 -58 0 -81 -1 -52 -3z"/>
<path d="M554 260 c0 -63 1 -89 3 -57 2 31 2 83 0 115 -2 31 -3 5 -3 -58z"/>
<path d="M824 260 c0 -63 1 -89 3 -57 2 31 2 83 0 115 -2 31 -3 5 -3 -58z"/>
<path d="M1894 265 c0 -60 1 -84 3 -52 2 32 2 81 0 110 -2 29 -3 3 -3 -58z"/>
<path d="M2434 260 c0 -63 1 -89 3 -57 2 31 2 83 0 115 -2 31 -3 5 -3 -58z"/>
<path d="M2704 260 c0 -63 1 -89 3 -57 2 31 2 83 0 115 -2 31 -3 5 -3 -58z"/>
<path d="M2974 260 c0 -63 1 -89 3 -57 2 31 2 83 0 115 -2 31 -3 5 -3 -58z"/>
<path d="M1094 255 c0 -60 1 -84 3 -52 2 32 2 81 0 110 -2 29 -3 3 -3 -58z"/>
<path d="M1359 333 c-2 -16 -1 -64 2 -108 l5 -80 2 108 c2 104 -2 136 -9 80z"/>
<path d="M1627 353 c-11 -10 -8 -193 3 -193 5 0 9 42 8 100 0 55 -1 100 -3
100 -1 0 -5 -3 -8 -7z"/>
<path d="M2164 260 c0 -58 1 -81 3 -52 2 28 2 76 0 105 -2 28 -3 5 -3 -53z"/>
<path d="M1080 129 c0 -11 21 -13 97 -11 150 4 170 9 46 10 -61 1 -118 5 -127
8 -10 4 -16 1 -16 -7z"/>
<path d="M2310 130 l-125 -5 128 -5 c71 -3 131 -2 133 2 8 12 -9 13 -136 8z"/>
<path d="M103 123 c32 -2 81 -2 110 0 29 2 3 3 -58 3 -60 0 -84 -1 -52 -3z"/>
<path d="M362 123 c32 -2 84 -2 115 0 32 2 6 3 -57 3 -63 0 -89 -1 -58 -3z"/>
<path d="M632 123 c32 -2 84 -2 116 0 31 2 5 3 -58 3 -63 0 -89 -1 -58 -3z"/>
<path d="M903 123 c32 -2 81 -2 110 0 29 2 3 3 -58 3 -60 0 -84 -1 -52 -3z"/>
<path d="M1443 123 c32 -2 81 -2 110 0 29 2 3 3 -58 3 -60 0 -84 -1 -52 -3z"/>
<path d="M1713 123 c32 -2 81 -2 110 0 29 2 3 3 -58 3 -60 0 -84 -1 -52 -3z"/>
<path d="M1983 123 c32 -2 81 -2 110 0 29 2 3 3 -58 3 -60 0 -84 -1 -52 -3z"/>
<path d="M2513 123 c31 -2 83 -2 115 0 31 2 5 3 -58 3 -63 0 -89 -1 -57 -3z"/>
<path d="M2783 123 c31 -2 83 -2 115 0 31 2 5 3 -58 3 -63 0 -89 -1 -57 -3z"/>
<path d="M1358 66 c-2 -19 -1 -43 3 -53 5 -11 8 2 8 35 1 59 -5 69 -11 18z"/>
<path d="M1620 45 c0 -25 4 -45 9 -45 5 0 9 20 9 45 0 25 -4 45 -9 45 -5 0 -9
-20 -9 -45z"/>
</g>
</svg>
